<svg xmlns="http://www.w3.org/2000/svg" xmlns:xlink="http://www.w3.org/1999/xlink" version="1.1" x="0px" y="0px" viewBox="0 0 24 30" style="enable-background:new 0 0 24 24;" xml:space="preserve"><path d="M20.828,9.917l-7.984,7.984c-1.898,1.898-4.951,2.021-6.807,0.273c-0.948-0.894-1.481-2.102-1.501-3.402  s0.477-2.522,1.396-3.442l6.796-6.796c1.109-1.108,2.914-1.108,4.023,0c1.108,1.109,1.108,2.914,0,4.023l-6.797,6.796  c-0.347,0.348-0.955,0.349-1.304,0c-0.359-0.36-0.359-0.945,0-1.305l5.437-5.437c0.391-0.391,0.391-1.023,0-1.414  s-1.023-0.391-1.414,0l-5.437,5.437c-1.14,1.139-1.14,2.994,0,4.133c1.104,1.104,3.029,1.104,4.132,0l6.797-6.796  c1.889-1.889,1.889-4.962,0-6.851s-4.963-1.889-6.852,0L4.518,9.917c-1.305,1.305-2.009,3.04-1.981,4.886s0.784,3.561,2.13,4.828  c1.259,1.186,2.898,1.772,4.557,1.772c1.813,0,3.649-0.701,5.035-2.087l7.984-7.984c0.391-0.391,0.391-1.023,0-1.414  S21.219,9.526,20.828,9.917z" fill="#7d8489"/></svg>