<svg xmlns:dc="http://purl.org/dc/elements/1.1/" xmlns:cc="http://creativecommons.org/ns#" xmlns:rdf="http://www.w3.org/1999/02/22-rdf-syntax-ns#" xmlns:svg="http://www.w3.org/2000/svg" xmlns="http://www.w3.org/2000/svg" xmlns:sodipodi="http://sodipodi.sourceforge.net/DTD/sodipodi-0.dtd" xmlns:inkscape="http://www.inkscape.org/namespaces/inkscape" version="1.1" x="0px" y="0px" viewBox="0 0 100 125"><g transform="translate(0,-952.36218)"><path d="m 50.00002,965.36219 c -8.27541,0 -15,6.72459 -15,15 l 0,22.00001 c 0,8.2754 6.72459,15 15,15 8.27541,0 15,-6.7246 15,-15 l 0,-22.00001 c 0,-8.27541 -6.72459,-15 -15,-15 z m -21.96875,25.00002 c -1.06804,-0.0167 -2.04796,0.96321 -2.03125,2.03125 l 0,9.99994 c 0,12.5919 9.66994,22.8965 22,23.9063 l 0,9.0625 -8,0 c -1.10457,0 -2,0.8954 -2,2 0,1.1046 0.89543,2 2,2 l 20,0 c 1.10457,0 2,-0.8954 2,-2 0,-1.1046 -0.89543,-2 -2,-2 l -8,0 0,-9.0625 c 12.33006,-1.0098 22,-11.3144 22,-23.9063 l 0,-9.99994 c 0.0149,-1.05661 -0.94327,-2.02847 -2,-2.02847 -1.05673,0 -2.01494,0.97186 -2,2.02847 l 0,9.99994 c 0,11.1146 -8.88541,20 -20,20 -11.1146,0 -20,-8.8854 -20,-20 l 0,-9.99994 c 0.0164,-1.04719 -0.92155,-2.01491 -1.96875,-2.03125 z" style="text-indent:0;text-transform:none;direction:ltr;block-progression:tb;baseline-shift:baseline;color:#000000;enable-background:accumulate;" fill="#ffffff" fill-opacity="1" stroke="none" marker="none" visibility="visible" display="inline" overflow="visible"/></g></svg>